<svg width="0" height="0" fill="none" style="visibility: hidden; position: absolute;" aria-hidden="true">
    <symbol id="arrow" width="24" height="24" viewBox="0 0 24 24" fill="none" xmlns="http://www.w3.org/2000/svg">
        <g id="Frame__arrow">
            <path id="Vector__arrow" d="M4.58887 4.58887L18.7914 18.7914M19.4109 4.87446L19.4111 19.4112H4.90373" stroke="black" stroke-width="2"/>
        </g>
    </symbol>
    <symbol id="bookmark" width="54" height="173" viewBox="0 0 54 173" fill="none" xmlns="http://www.w3.org/2000/svg">
        <g id="Frame__bookmark">
            <path id="Vector__bookmark" d="M0.9375 0.828125H54.0019V172.186H0.9375V0.828125Z" fill="white"/>
            <g id="Group__bookmark">
                <path id="Vector_2__bookmark" d="M20.9787 154.493V152.593H24.8656V148.5H20.9787V146.6H31.2067V148.5H26.6181V152.593H31.2067V154.493H20.9787ZM30.8268 143.064C30.4959 143.629 30.0431 144.061 29.4682 144.358C28.8934 144.655 28.2466 144.804 27.5248 144.804C26.804 144.804 26.1562 144.655 25.5824 144.358C25.014 144.067 24.5419 143.617 24.2228 143.064C23.8919 142.5 23.7259 141.832 23.7259 141.062C23.7259 140.292 23.8919 139.624 24.2228 139.06C24.5419 138.507 25.014 138.057 25.5824 137.766C26.1562 137.469 26.805 137.321 27.5248 137.321C28.2476 137.321 28.8934 137.469 29.4682 137.766C30.0365 138.057 30.5084 138.506 30.8268 139.06C31.1577 139.624 31.3237 140.292 31.3237 141.062C31.3237 141.832 31.1577 142.5 30.8268 143.064ZM29.1243 139.717C28.6895 139.387 28.1576 139.221 27.5238 139.221C26.891 139.221 26.3581 139.387 25.9233 139.717C25.4904 140.049 25.2745 140.497 25.2745 141.063C25.2745 141.627 25.4914 142.076 25.9233 142.408C26.3581 142.739 26.891 142.905 27.5238 142.905C28.1576 142.905 28.6895 142.739 29.1243 142.408C29.5592 142.076 29.7731 141.628 29.7731 141.063C29.7741 140.497 29.5592 140.049 29.1243 139.717ZM23.8419 135.68V133.867H25.0275C24.6435 133.601 24.3196 133.257 24.0768 132.858C23.8443 132.475 23.7225 132.035 23.7249 131.587C23.7249 130.905 23.9149 130.358 24.2947 129.942C24.6756 129.529 25.2265 129.321 25.9463 129.321H31.2067V131.133H26.4871C26.0682 131.133 25.7603 131.229 25.5664 131.418C25.3714 131.608 25.2745 131.865 25.2745 132.187C25.2745 132.489 25.3894 132.767 25.6244 133.02C25.8583 133.274 26.2012 133.478 26.6541 133.633C27.1079 133.789 27.6468 133.867 28.2696 133.867H31.2067V135.68H23.8419ZM30.8268 125.964C30.5081 126.517 30.0363 126.967 29.4682 127.258C28.8934 127.555 28.2466 127.703 27.5248 127.703C26.804 127.703 26.1562 127.555 25.5824 127.258C25.0142 126.966 24.5422 126.517 24.2228 125.964C23.8919 125.399 23.7259 124.732 23.7259 123.962C23.7259 123.191 23.8919 122.524 24.2228 121.959C24.5419 121.406 25.0141 120.957 25.5824 120.666C26.1562 120.369 26.805 120.22 27.5248 120.22C28.2476 120.22 28.8934 120.369 29.4682 120.666C30.0431 120.963 30.4959 121.394 30.8268 121.959C31.1577 122.524 31.3237 123.191 31.3237 123.962C31.3247 124.731 31.1577 125.398 30.8268 125.964ZM29.1243 122.617C28.6895 122.286 28.1576 122.12 27.5238 122.12C26.891 122.12 26.3581 122.286 25.9233 122.617C25.4904 122.948 25.2745 123.395 25.2745 123.962C25.2745 124.526 25.4914 124.975 25.9233 125.306C26.3581 125.638 26.891 125.804 27.5238 125.804C28.1576 125.804 28.6895 125.638 29.1243 125.306C29.5592 124.975 29.7731 124.527 29.7731 123.962C29.7741 123.395 29.5592 122.948 29.1243 122.617ZM23.8419 118.578V116.766H25.0405C24.6217 116.501 24.2987 116.18 24.0688 115.8C23.8389 115.42 23.7239 115.016 23.7239 114.587C23.7239 114.315 23.7739 114.018 23.8699 113.695L25.5514 114.031C25.4133 114.26 25.3423 114.523 25.3464 114.791C25.3464 115.367 25.6074 115.839 26.1292 116.209C26.6501 116.579 27.4708 116.766 28.5895 116.766H31.2057V118.578H23.8419ZM30.7409 112.08C30.35 112.591 29.8841 112.931 29.3383 113.096L28.5625 111.65C28.9434 111.512 29.2423 111.321 29.4552 111.073C29.6702 110.824 29.7761 110.529 29.7761 110.188C29.7847 109.957 29.7263 109.729 29.6082 109.53C29.4962 109.355 29.3143 109.267 29.0603 109.267C28.8354 109.267 28.6545 109.372 28.5125 109.58C28.3706 109.79 28.2216 110.114 28.0666 110.553C28.0476 110.621 28.0087 110.723 27.9497 110.86C27.7257 111.425 27.4438 111.864 27.1019 112.175C26.762 112.488 26.3232 112.642 25.7883 112.642C25.4074 112.642 25.0615 112.54 24.7496 112.336C24.4328 112.126 24.1764 111.836 24.0058 111.496C23.8152 111.123 23.7195 110.708 23.7269 110.289C23.7269 109.792 23.8319 109.34 24.0408 108.93C24.2518 108.522 24.5467 108.205 24.9266 107.981L25.9193 109.063C25.4894 109.355 25.2755 109.749 25.2755 110.247C25.2714 110.427 25.3254 110.604 25.4294 110.751C25.473 110.817 25.5326 110.871 25.6027 110.908C25.6727 110.945 25.751 110.964 25.8303 110.963C26.0062 110.963 26.1682 110.86 26.3202 110.656C26.4701 110.451 26.6541 110.052 26.867 109.457C27.0719 108.893 27.3409 108.456 27.6718 108.149C28.0037 107.841 28.4275 107.689 28.9424 107.689C29.6632 107.689 30.241 107.918 30.6739 108.376C31.1067 108.834 31.3237 109.433 31.3237 110.173C31.3247 110.932 31.1297 111.569 30.7409 112.08ZM36.4082 17.8341L31.6276 32.8031H28.3626L25.7793 23.1211L23.1961 32.8031H19.929L15.1484 17.8341H18.8603L21.5326 28.1101L24.0568 17.8341H27.5008L30.0241 28.1101L32.6973 17.8341H36.4082ZM38.9045 27.9911C40.33 27.9911 41.3997 29.0591 41.3997 30.4861C41.3997 31.9111 40.33 32.9811 38.9045 32.9811C37.4799 32.9811 36.4112 31.9111 36.4112 30.4861C36.4102 29.0591 37.4799 27.9911 38.9045 27.9911Z" fill="black"/>
            </g>
        </g>
    </symbol>
    <symbol id="crystal" width="21" height="24" viewBox="0 0 21 24" fill="none" xmlns="http://www.w3.org/2000/svg">
        <g id="Frame__crystal">
            <path id="Vector__crystal" d="M17.4632 12.8639H12.5819L16.0372 16.3191L14.8031 17.5258L11.3479 14.0704V18.9792L9.62022 18.9518V14.0704L6.16492 17.5532L4.9583 16.3191L8.4136 12.8639H3.50488V11.1362H8.4136L4.9583 7.65347L6.16492 6.44687L9.62022 9.92958V5.02087H11.3479V9.92958L14.8305 6.44687L16.0372 7.65347L12.5819 11.1362H17.4632V12.8639Z" fill="#F85430"/>
        </g>
    </symbol>
    <symbol id="logo" width="203" height="61" viewBox="0 0 203 61" fill="none" xmlns="http://www.w3.org/2000/svg">
        <g id="Frame__logo">
            <path id="Vector__logo" d="M32.8229 4.31226C33.5232 5.32285 34.3982 6.1998 35.4065 6.9017C34.3984 7.6039 33.5235 8.4808 32.8229 9.49114C32.1216 8.48132 31.2468 7.60452 30.2393 6.9017C31.2471 6.19918 32.1219 5.32233 32.8229 4.31226Z" fill="white"/>
            <path id="Vector_2__logo" d="M51.5073 22.8242C51.1312 20.6154 50.0744 18.5801 48.4853 17.0039C46.9765 15.4884 43.4456 11.9414 43.2679 10.5914L42.9617 8.25869L40.7264 8.98794C38.4434 9.73202 36.8334 11.5317 36.3062 13.9272C35.9395 15.6002 36.1399 17.457 36.8869 19.2978C37.6646 21.2162 38.9968 23.0638 40.846 24.7757C42.0473 25.8941 42.143 27.9106 41.6215 29.2424C41.4245 29.7434 41.0897 30.3118 40.534 30.6119C40.1261 30.1098 39.6844 29.6362 39.212 29.1945C36.3301 26.4909 31.7026 24.2587 25.1712 21.5346C22.8791 20.5782 18.9894 18.9554 17.5923 17.1979C19.1568 16.8761 20.9718 17.013 23.2526 17.5631C23.5695 17.6396 23.8944 17.6779 24.2204 17.6772C26.2916 17.6772 27.8243 16.0521 28.4585 14.96L29.2556 13.5905L28.0816 12.5246C28.011 12.4607 26.582 11.1677 24.5666 9.64756L24.43 8.32945L16.6449 3.57966L11.5767 0.418457C11.5767 0.418457 10.2514 2.41561 11.2432 4.80648C10.6271 4.95932 10.0237 5.15964 9.43836 5.40562C6.64979 6.46354 4.12767 8.52345 2.41854 11.2795C0.756097 13.9614 -0.0614898 17.1842 0.0546534 20.6011C0.185599 24.4299 1.4518 28.4675 3.81907 32.5988C4.11371 33.1082 4.43527 33.6016 4.78237 34.0767C3.88397 35.8444 2.43218 38.2171 0.797062 39.4245L0 40.0111V47.8547C1.03243 47.8578 2.02387 47.45 2.75658 46.721C3.48929 45.992 3.90339 45.0013 3.90791 43.9666C3.90791 43.4564 3.90791 41.9272 3.90791 41.9272C5.40411 40.5794 6.64066 38.7728 7.53678 37.2025C8.70307 38.3142 9.97887 39.3045 11.3445 40.1583C11.3855 39.9589 11.4272 39.7569 11.4697 39.5523C11.685 38.4131 12.0451 37.3062 12.5412 36.2587C12.3214 36.1035 12.1051 35.9483 11.8967 35.7885C10.766 34.9337 10.035 33.2139 9.83578 30.944C9.52037 27.3434 10.6511 23.1677 12.5686 20.5976C12.6065 22.9638 13.022 25.3086 13.7994 27.5431C14.4879 29.5375 15.3872 31.4524 16.4821 33.255C15.1692 34.7055 13.9532 36.1982 13.2666 39.5568C10.8389 51.4256 9.65813 54.4099 7.95811 56.4299H6.42887V56.4459C5.45487 56.531 4.54809 56.9789 3.88745 57.7012C3.22682 58.4235 2.86034 59.3678 2.86033 60.3477H9.6661L10.2423 59.7452C12.8999 56.9731 14.2173 54.0812 16.6825 42.3791C18.3028 42.6131 19.7432 42.3791 21.0606 42.1634C22.1185 41.9899 23.1182 41.8279 24.2022 41.8884C24.6734 44.1192 25.6706 46.2045 27.1104 47.97L24.4163 50.629C23.3808 50.6309 22.3884 51.0445 21.657 51.779C20.9256 52.5136 20.5149 53.5091 20.5152 54.5469H26.0184L32.7273 47.9277L31.1503 46.5389C29.2829 44.8944 28.4699 42.8436 28.1192 41.473C27.9224 40.6696 27.8229 39.8454 27.8232 39.0182C27.8232 38.8014 27.8311 38.5868 27.8437 38.3734C26.7504 38.1721 25.645 38.0436 24.5347 37.9888C22.9759 37.8861 21.6243 38.1029 20.4355 38.3026C19.4108 38.4704 18.5146 38.6153 17.6128 38.5469C18.0842 37.3258 18.7127 36.6353 19.6373 35.6208C19.8833 35.3503 20.1384 35.0707 20.4116 34.758L21.3886 33.6384L20.5744 32.3934C18.1001 28.617 16.7474 24.9685 16.5208 21.4912C16.6347 21.5791 16.7611 21.6658 16.8875 21.7526C18.838 23.0969 21.3909 24.2096 23.6375 25.1477C29.5858 27.8946 29.587 31.2636 29.587 34.8287C29.587 35.2019 29.5801 35.5899 29.5721 36.0008C29.5414 37.7389 29.5061 39.7075 29.9946 41.5928C30.6106 43.962 31.9667 45.7377 34.0243 46.8698C36.9153 48.4607 39.4033 49.1078 41.133 49.3623L39.688 56.4653C38.7334 56.5735 37.8519 57.0302 37.2118 57.7481C36.5717 58.4661 36.2177 59.3951 36.2174 60.358H42.8831V60.3512L45.9472 45.2801L44.0513 45.5084C43.8031 44.9218 43.3829 43.429 43.3829 40.0407C43.3829 37.9968 43.1609 36.2393 42.6849 34.685C44.0032 34.4999 45.2771 34.0769 46.4448 33.4364C48.2926 32.4275 49.7718 30.855 50.6681 28.9469C51.567 27.0403 51.86 24.903 51.5073 22.8242ZM16.5641 13.4102C14.2299 13.942 12.1825 15.1837 10.3015 17.2048C7.85336 19.8421 6.24216 23.9916 5.92676 28.1708C2.48459 20.6707 4.25065 15.7314 5.73205 13.3417C7.54821 10.4122 10.6954 8.51889 13.6776 8.51889C13.8222 8.51889 13.9668 8.51889 14.1103 8.53259C16.3876 8.67524 20.2693 11.2076 23.2195 13.5346C20.6427 13.0051 18.5089 12.9674 16.5641 13.4102ZM35.8985 43.4153C33.5426 42.1189 33.4083 39.6596 33.4732 36.0556C33.4812 35.6459 33.488 35.2213 33.488 34.8128C33.488 33.271 33.488 31.4062 32.9187 29.481C34.3989 30.3289 35.6013 31.1723 36.5385 32.051C38.6484 34.0299 39.4705 36.2644 39.4705 40.019C39.4705 42.0516 39.6003 43.7246 39.869 45.0724C38.4874 44.672 37.1554 44.1161 35.8985 43.4153ZM47.1371 27.2727C46.7898 28.0209 46.2929 28.6898 45.6773 29.2379C46.2113 26.5309 45.4041 23.6698 43.5048 21.9032C40.9314 19.5066 39.6675 16.8407 40.1241 14.7648C40.1946 14.4312 40.3212 14.112 40.4987 13.821C41.4438 15.2818 43.0687 17.1066 45.7172 19.768C47.7611 21.821 48.319 24.7677 47.1371 27.2727Z" fill="white"/>
        </g>
    </symbol>
    <symbol id="menu-group" width="116" height="58" viewBox="0 0 116 58" fill="none" xmlns="http://www.w3.org/2000/svg">
        <g id="Group__menu-group">
            <g id="Group_2__menu-group">
                <g id="Group_3__menu-group">
                    <path id="Vector__menu-group" d="M28.99 0H87.01C103.02 0 116 12.984 116 29C116 45.016 103.02 58 87.01 58H28.99C12.98 58 0 45.016 0 29C0 12.984 12.98 0 28.99 0Z" fill="white"/>
                </g>
            </g>
            <g id="Group_4__menu-group">
                <g id="Group_5__menu-group">
                    <path id="Vector_2__menu-group" d="M15.9785 34.488V23.288H19.2265L21.6745 33.336H21.9305L24.3785 23.288H27.6265V34.488H25.9465V24.504H25.6905L23.2585 34.488H20.3465L17.9145 24.504H17.6585V34.488H15.9785Z" fill="#16181C"/>
                </g>
            </g>
            <g id="Group_6__menu-group">
                <g id="Group_7__menu-group">
                    <path id="Vector_3__menu-group" d="M29.9629 34.488V23.288H37.0189V24.856H31.6909V28.072H36.5709V29.64H31.6909V32.92H37.0989V34.488H29.9629Z" fill="#16181C"/>
                </g>
            </g>
            <g id="Group_8__menu-group">
                <g id="Group_9__menu-group">
                    <path id="Vector_4__menu-group" d="M38.9004 34.488V23.288H42.2284L45.2684 33.336H45.5244V23.288H47.2364V34.488H43.9084L40.8684 24.424H40.6124V34.488H38.9004Z" fill="#16181C"/>
                </g>
            </g>
            <g id="Group_10__menu-group">
                <g id="Group_11__menu-group">
                    <path id="Vector_5__menu-group" d="M53.7652 34.712C52.8802 34.712 52.1172 34.552 51.4772 34.232C50.8482 33.912 50.3572 33.453 50.0052 32.856C49.6642 32.248 49.4932 31.512 49.4932 30.648V23.288H51.2372V30.696C51.2372 31.485 51.4562 32.093 51.8932 32.52C52.3302 32.947 52.9542 33.16 53.7652 33.16C54.5762 33.16 55.2002 32.947 55.6372 32.52C56.0742 32.093 56.2932 31.485 56.2932 30.696V23.288H58.0212V30.648C58.0212 31.512 57.8502 32.248 57.5092 32.856C57.1682 33.453 56.6772 33.912 56.0372 34.232C55.3972 34.552 54.6402 34.712 53.7652 34.712Z" fill="#16181C"/>
                </g>
            </g>
            <g id="Group_12__menu-group">
                <g id="Group_13__menu-group">
                    <path id="Vector_6__menu-group" d="M68.1729 23.3334H97.8689" stroke="#16181C" stroke-width="2"/>
                </g>
            </g>
            <g id="Group_14__menu-group">
                <g id="Group_15__menu-group">
                    <path id="Vector_7__menu-group" d="M80.8984 34.6667H97.8684" stroke="#16181C" stroke-width="2"/>
                </g>
            </g>
        </g>
    </symbol>
    <symbol id="red-arrow" width="97" height="65" viewBox="0 0 97 65" fill="none" xmlns="http://www.w3.org/2000/svg">
        <g id="Frame__red-arrow">
            <path id="Vector__red-arrow" d="M29.1738 12.2527L68.7 51.7788M68.7 51.7788L68.6992 13.0143M68.7 51.7788L30.0135 51.7789" stroke="#F85430" stroke-width="4"/>
        </g>
    </symbol>
    <symbol id="star-outline" width="36" height="36" viewBox="0 0 36 36" fill="none" xmlns="http://www.w3.org/2000/svg">
        <g id="star-outline.svg__star-outline" clip-path="url(#clip0_15_5315__star-outline)">
            <path id="Vector__star-outline" fill-rule="evenodd" clip-rule="evenodd" d="M17.5156 0.961609C17.3134 1.253 17.109 1.5427 16.9024 1.8307C12.6034 7.82387 7.36159 13.0775 1.38181 17.3861C1.09477 17.5929 0.80604 17.7975 0.515625 18C0.805976 18.2025 1.09465 18.4072 1.38163 18.6141C7.36005 22.9244 12.6016 28.1778 16.9023 34.1696C17.1089 34.4575 17.3133 34.7471 17.5156 35.0383C17.7177 34.747 17.9219 34.4572 18.1284 34.1693C22.4256 28.1746 27.6677 22.9208 33.6488 18.6139C33.9361 18.4071 34.225 18.2024 34.5156 18C34.2249 17.7976 33.9359 17.5931 33.6486 17.3863C27.6661 13.0811 22.4239 7.82705 18.1283 1.83108C17.9218 1.54296 17.7176 1.25313 17.5156 0.961609ZM17.5151 2.69079C13.2565 8.56599 8.10123 13.7325 2.23865 18.0002C8.09996 22.2695 13.255 27.4359 17.5151 33.3099C21.7718 27.4332 26.9273 22.2664 32.7911 18.0002C26.926 13.7356 21.7703 8.56866 17.5151 2.69079Z" fill="#F85430"/>
        </g>
        <defs>
            <clipPath id="clip0_15_5315__star-outline">
                <rect width="35" height="36" fill="white" transform="translate(0.015625)"/>
            </clipPath>
        </defs>
    </symbol>
</svg>