<svg width="54" height="173" viewBox="0 0 54 173" fill="none" xmlns="http://www.w3.org/2000/svg">
<g id="Frame">
<path id="Vector" d="M0.9375 0.828125H54.0019V172.186H0.9375V0.828125Z" fill="white"/>
<g id="Group">
<path id="Vector_2" d="M20.9787 154.493V152.593H24.8656V148.5H20.9787V146.6H31.2067V148.5H26.6181V152.593H31.2067V154.493H20.9787ZM30.8268 143.064C30.4959 143.629 30.0431 144.061 29.4682 144.358C28.8934 144.655 28.2466 144.804 27.5248 144.804C26.804 144.804 26.1562 144.655 25.5824 144.358C25.014 144.067 24.5419 143.617 24.2228 143.064C23.8919 142.5 23.7259 141.832 23.7259 141.062C23.7259 140.292 23.8919 139.624 24.2228 139.06C24.5419 138.507 25.014 138.057 25.5824 137.766C26.1562 137.469 26.805 137.321 27.5248 137.321C28.2476 137.321 28.8934 137.469 29.4682 137.766C30.0365 138.057 30.5084 138.506 30.8268 139.06C31.1577 139.624 31.3237 140.292 31.3237 141.062C31.3237 141.832 31.1577 142.5 30.8268 143.064ZM29.1243 139.717C28.6895 139.387 28.1576 139.221 27.5238 139.221C26.891 139.221 26.3581 139.387 25.9233 139.717C25.4904 140.049 25.2745 140.497 25.2745 141.063C25.2745 141.627 25.4914 142.076 25.9233 142.408C26.3581 142.739 26.891 142.905 27.5238 142.905C28.1576 142.905 28.6895 142.739 29.1243 142.408C29.5592 142.076 29.7731 141.628 29.7731 141.063C29.7741 140.497 29.5592 140.049 29.1243 139.717ZM23.8419 135.68V133.867H25.0275C24.6435 133.601 24.3196 133.257 24.0768 132.858C23.8443 132.475 23.7225 132.035 23.7249 131.587C23.7249 130.905 23.9149 130.358 24.2947 129.942C24.6756 129.529 25.2265 129.321 25.9463 129.321H31.2067V131.133H26.4871C26.0682 131.133 25.7603 131.229 25.5664 131.418C25.3714 131.608 25.2745 131.865 25.2745 132.187C25.2745 132.489 25.3894 132.767 25.6244 133.02C25.8583 133.274 26.2012 133.478 26.6541 133.633C27.1079 133.789 27.6468 133.867 28.2696 133.867H31.2067V135.68H23.8419ZM30.8268 125.964C30.5081 126.517 30.0363 126.967 29.4682 127.258C28.8934 127.555 28.2466 127.703 27.5248 127.703C26.804 127.703 26.1562 127.555 25.5824 127.258C25.0142 126.966 24.5422 126.517 24.2228 125.964C23.8919 125.399 23.7259 124.732 23.7259 123.962C23.7259 123.191 23.8919 122.524 24.2228 121.959C24.5419 121.406 25.0141 120.957 25.5824 120.666C26.1562 120.369 26.805 120.22 27.5248 120.22C28.2476 120.22 28.8934 120.369 29.4682 120.666C30.0431 120.963 30.4959 121.394 30.8268 121.959C31.1577 122.524 31.3237 123.191 31.3237 123.962C31.3247 124.731 31.1577 125.398 30.8268 125.964ZM29.1243 122.617C28.6895 122.286 28.1576 122.12 27.5238 122.12C26.891 122.12 26.3581 122.286 25.9233 122.617C25.4904 122.948 25.2745 123.395 25.2745 123.962C25.2745 124.526 25.4914 124.975 25.9233 125.306C26.3581 125.638 26.891 125.804 27.5238 125.804C28.1576 125.804 28.6895 125.638 29.1243 125.306C29.5592 124.975 29.7731 124.527 29.7731 123.962C29.7741 123.395 29.5592 122.948 29.1243 122.617ZM23.8419 118.578V116.766H25.0405C24.6217 116.501 24.2987 116.18 24.0688 115.8C23.8389 115.42 23.7239 115.016 23.7239 114.587C23.7239 114.315 23.7739 114.018 23.8699 113.695L25.5514 114.031C25.4133 114.26 25.3423 114.523 25.3464 114.791C25.3464 115.367 25.6074 115.839 26.1292 116.209C26.6501 116.579 27.4708 116.766 28.5895 116.766H31.2057V118.578H23.8419ZM30.7409 112.08C30.35 112.591 29.8841 112.931 29.3383 113.096L28.5625 111.65C28.9434 111.512 29.2423 111.321 29.4552 111.073C29.6702 110.824 29.7761 110.529 29.7761 110.188C29.7847 109.957 29.7263 109.729 29.6082 109.53C29.4962 109.355 29.3143 109.267 29.0603 109.267C28.8354 109.267 28.6545 109.372 28.5125 109.58C28.3706 109.79 28.2216 110.114 28.0666 110.553C28.0476 110.621 28.0087 110.723 27.9497 110.86C27.7257 111.425 27.4438 111.864 27.1019 112.175C26.762 112.488 26.3232 112.642 25.7883 112.642C25.4074 112.642 25.0615 112.54 24.7496 112.336C24.4328 112.126 24.1764 111.836 24.0058 111.496C23.8152 111.123 23.7195 110.708 23.7269 110.289C23.7269 109.792 23.8319 109.34 24.0408 108.93C24.2518 108.522 24.5467 108.205 24.9266 107.981L25.9193 109.063C25.4894 109.355 25.2755 109.749 25.2755 110.247C25.2714 110.427 25.3254 110.604 25.4294 110.751C25.473 110.817 25.5326 110.871 25.6027 110.908C25.6727 110.945 25.751 110.964 25.8303 110.963C26.0062 110.963 26.1682 110.86 26.3202 110.656C26.4701 110.451 26.6541 110.052 26.867 109.457C27.0719 108.893 27.3409 108.456 27.6718 108.149C28.0037 107.841 28.4275 107.689 28.9424 107.689C29.6632 107.689 30.241 107.918 30.6739 108.376C31.1067 108.834 31.3237 109.433 31.3237 110.173C31.3247 110.932 31.1297 111.569 30.7409 112.08ZM36.4082 17.8341L31.6276 32.8031H28.3626L25.7793 23.1211L23.1961 32.8031H19.929L15.1484 17.8341H18.8603L21.5326 28.1101L24.0568 17.8341H27.5008L30.0241 28.1101L32.6973 17.8341H36.4082ZM38.9045 27.9911C40.33 27.9911 41.3997 29.0591 41.3997 30.4861C41.3997 31.9111 40.33 32.9811 38.9045 32.9811C37.4799 32.9811 36.4112 31.9111 36.4112 30.4861C36.4102 29.0591 37.4799 27.9911 38.9045 27.9911Z" fill="black"/>
</g>
</g>
</svg>
