<svg width="116" height="58" viewBox="0 0 116 58" fill="none" xmlns="http://www.w3.org/2000/svg">
<g id="Group">
<g id="Group_2">
<g id="Group_3">
<path id="Vector" d="M28.99 0H87.01C103.02 0 116 12.984 116 29C116 45.016 103.02 58 87.01 58H28.99C12.98 58 0 45.016 0 29C0 12.984 12.98 0 28.99 0Z" fill="white"/>
</g>
</g>
<g id="Group_4">
<g id="Group_5">
<path id="Vector_2" d="M15.9785 34.488V23.288H19.2265L21.6745 33.336H21.9305L24.3785 23.288H27.6265V34.488H25.9465V24.504H25.6905L23.2585 34.488H20.3465L17.9145 24.504H17.6585V34.488H15.9785Z" fill="#16181C"/>
</g>
</g>
<g id="Group_6">
<g id="Group_7">
<path id="Vector_3" d="M29.9629 34.488V23.288H37.0189V24.856H31.6909V28.072H36.5709V29.64H31.6909V32.92H37.0989V34.488H29.9629Z" fill="#16181C"/>
</g>
</g>
<g id="Group_8">
<g id="Group_9">
<path id="Vector_4" d="M38.9004 34.488V23.288H42.2284L45.2684 33.336H45.5244V23.288H47.2364V34.488H43.9084L40.8684 24.424H40.6124V34.488H38.9004Z" fill="#16181C"/>
</g>
</g>
<g id="Group_10">
<g id="Group_11">
<path id="Vector_5" d="M53.7652 34.712C52.8802 34.712 52.1172 34.552 51.4772 34.232C50.8482 33.912 50.3572 33.453 50.0052 32.856C49.6642 32.248 49.4932 31.512 49.4932 30.648V23.288H51.2372V30.696C51.2372 31.485 51.4562 32.093 51.8932 32.52C52.3302 32.947 52.9542 33.16 53.7652 33.16C54.5762 33.16 55.2002 32.947 55.6372 32.52C56.0742 32.093 56.2932 31.485 56.2932 30.696V23.288H58.0212V30.648C58.0212 31.512 57.8502 32.248 57.5092 32.856C57.1682 33.453 56.6772 33.912 56.0372 34.232C55.3972 34.552 54.6402 34.712 53.7652 34.712Z" fill="#16181C"/>
</g>
</g>
<g id="Group_12">
<g id="Group_13">
<path id="Vector_6" d="M68.1729 23.3334H97.8689" stroke="#16181C" stroke-width="2"/>
</g>
</g>
<g id="Group_14">
<g id="Group_15">
<path id="Vector_7" d="M80.8984 34.6667H97.8684" stroke="#16181C" stroke-width="2"/>
</g>
</g>
</g>
</svg>
