<svg width="36" height="36" viewBox="0 0 36 36" fill="none" xmlns="http://www.w3.org/2000/svg">
<g id="star-outline.svg" clip-path="url(#clip0_15_5315)">
<path id="Vector" fill-rule="evenodd" clip-rule="evenodd" d="M17.5156 0.961609C17.3134 1.253 17.109 1.5427 16.9024 1.8307C12.6034 7.82387 7.36159 13.0775 1.38181 17.3861C1.09477 17.5929 0.80604 17.7975 0.515625 18C0.805976 18.2025 1.09465 18.4072 1.38163 18.6141C7.36005 22.9244 12.6016 28.1778 16.9023 34.1696C17.1089 34.4575 17.3133 34.7471 17.5156 35.0383C17.7177 34.747 17.9219 34.4572 18.1284 34.1693C22.4256 28.1746 27.6677 22.9208 33.6488 18.6139C33.9361 18.4071 34.225 18.2024 34.5156 18C34.2249 17.7976 33.9359 17.5931 33.6486 17.3863C27.6661 13.0811 22.4239 7.82705 18.1283 1.83108C17.9218 1.54296 17.7176 1.25313 17.5156 0.961609ZM17.5151 2.69079C13.2565 8.56599 8.10123 13.7325 2.23865 18.0002C8.09996 22.2695 13.255 27.4359 17.5151 33.3099C21.7718 27.4332 26.9273 22.2664 32.7911 18.0002C26.926 13.7356 21.7703 8.56866 17.5151 2.69079Z" fill="#F85430"/>
</g>
<defs>
<clipPath id="clip0_15_5315">
<rect width="35" height="36" fill="white" transform="translate(0.015625)"/>
</clipPath>
</defs>
</svg>
